<?xml version="1.0" encoding="utf-8"?>
<!-- Generator: Adobe Illustrator 15.0.2, SVG Export Plug-In . SVG Version: 6.00 Build 0)  -->
<!DOCTYPE svg PUBLIC "-//W3C//DTD SVG 1.1//EN" "http://www.w3.org/Graphics/SVG/1.1/DTD/svg11.dtd">
<svg version="1.1" id="Calque_1" xmlns="http://www.w3.org/2000/svg" xmlns:xlink="http://www.w3.org/1999/xlink" x="0px" y="0px"
	 width="50px" height="50px" viewBox="0 0 50 50" enable-background="new 0 0 50 50" xml:space="preserve">
<path fill="#1D1D1B" d="M43.8,42.5c-10,10-26.3,10-36.3,0c-10-10-10-26.3,0-36.3c2.7-2.6,5.9-4.7,9.6-6c1.2-0.4,2.5-0.1,3.3,0.8
	c0.9,0.9,1.2,2.2,0.8,3.3c-2.5,7.1-0.8,14.8,4.5,20c5.3,5.3,12.9,7,20,4.5c1.2-0.4,2.5-0.1,3.3,0.8c0.9,0.9,1.2,2.2,0.8,3.3
	C48.5,36.6,46.5,39.8,43.8,42.5z M12.1,10.7c-7.5,7.5-7.5,19.7,0,27.2c8,8,21.7,7.3,28.7-1.6c-7.2,0.5-14.3-2.2-19.6-7.4
	c-5.3-5.3-7.9-12.4-7.4-19.6C13.1,9.7,12.6,10.2,12.1,10.7z"/>
</svg>
