<?xml version="1.0" encoding="utf-8"?>
<!-- Generator: Adobe Illustrator 15.0.2, SVG Export Plug-In . SVG Version: 6.00 Build 0)  -->
<!DOCTYPE svg PUBLIC "-//W3C//DTD SVG 1.1//EN" "http://www.w3.org/Graphics/SVG/1.1/DTD/svg11.dtd">
<svg version="1.1" id="Calque_1" xmlns="http://www.w3.org/2000/svg" xmlns:xlink="http://www.w3.org/1999/xlink" x="0px" y="0px"
	 width="50px" height="50px" viewBox="0 0 50 50" enable-background="new 0 0 50 50" xml:space="preserve">
<g>
	<g>
		<path fill="#1D1D1B" d="M25,11.5c-7.4,0-13.5,6-13.5,13.5s6,13.5,13.5,13.5s13.5-6,13.5-13.5S32.4,11.5,25,11.5z M25,34.6
			c-5.3,0-9.6-4.3-9.6-9.6c0-5.3,4.3-9.6,9.6-9.6c5.3,0,9.6,4.3,9.6,9.6C34.6,30.3,30.3,34.6,25,34.6z M25,7.7
			c1.1,0,1.9-0.9,1.9-1.9V1.9C26.9,0.9,26.1,0,25,0s-1.9,0.9-1.9,1.9v3.8C23.1,6.8,23.9,7.7,25,7.7z M25,42.3
			c-1.1,0-1.9,0.9-1.9,1.9v3.8c0,1.1,0.9,1.9,1.9,1.9s1.9-0.9,1.9-1.9v-3.8C26.9,43.2,26.1,42.3,25,42.3z M40,12.8l2.7-2.7
			c0.8-0.8,0.8-2,0-2.7c-0.8-0.8-2-0.8-2.7,0L37.2,10c-0.8,0.8-0.8,2,0,2.7C38,13.5,39.2,13.5,40,12.8z M10,37.2L7.3,40
			c-0.8,0.8-0.8,2,0,2.7c0.8,0.8,2,0.8,2.7,0l2.7-2.7c0.8-0.8,0.8-2,0-2.7C12,36.5,10.8,36.5,10,37.2z M7.7,25
			c0-1.1-0.9-1.9-1.9-1.9H1.9C0.9,23.1,0,23.9,0,25s0.9,1.9,1.9,1.9h3.8C6.8,26.9,7.7,26.1,7.7,25z M48.1,23.1h-3.8
			c-1.1,0-1.9,0.9-1.9,1.9s0.9,1.9,1.9,1.9h3.8c1.1,0,1.9-0.9,1.9-1.9S49.1,23.1,48.1,23.1z M10,12.8c0.8,0.8,2,0.8,2.7,0
			c0.8-0.8,0.8-2,0-2.7L10,7.3c-0.8-0.8-2-0.8-2.7,0c-0.8,0.8-0.8,2,0,2.7L10,12.8z M40,37.2c-0.8-0.8-2-0.8-2.7,0
			c-0.8,0.8-0.8,2,0,2.7l2.7,2.7c0.8,0.8,2,0.8,2.7,0c0.8-0.8,0.8-2,0-2.7L40,37.2z"/>
	</g>
</g>
</svg>
