dobe Illustrator 15.0.2, SVG Export Plug-In . SVG Version: 6.00 Build 0)  -->
<!DOCTYPE svg PUBLIC "-//W3C//DTD SVG 1.1//EN" "http://www.w3.org/Graphics/SVG/1.1/DTD/svg11.dtd">
<svg version="1.1" id="Calque_1" xmlns="http://www.w3.org/2000/svg" xmlns:xlink="http://www.w3.org/1999/xlink" x="0px" y="0px"
	 width="100px" height="100px" viewBox="0 0 100 100" enable-background="new 0 0 100 100" xml:space="preserve">
<g>
	<path fill="#9D9EA1" d="M100,100H0V0h100V100z M4.8,95.2h90.4V4.8H4.8V95.2z"/>
</g>
<g>
	<g>
		<polygon fill="#9D9EA1" points="57.2,81 47.6,81 47.6,59.6 38,59.6 38,81 19,81 19,19 38,19 38,40.4 47.6,40.4 47.6,19 57.2,19 
			57.2,23.8 52.4,23.8 52.4,45.2 33.4,45.2 33.4,23.8 23.8,23.8 23.8,76.2 33.4,76.2 33.4,54.8 52.4,54.8 52.4,76.2 57.2,76.2 		"/>
	</g>
	<g>
		<polygon fill="#9D9EA1" points="81,81 64.2,81 64.2,76.2 76.2,76.2 76.2,66.6 62,66.6 62,33.4 76.2,33.4 76.2,23.8 64.2,23.8 
			64.2,19 81,19 81,38 66.6,38 66.6,62 81,62 		"/>
	</g>
</g>
</svg>

