<?xml version="1.0" encoding="utf-8"?>
<!-- Generator: Adobe Illustrator 15.0.2, SVG Export Plug-In . SVG Version: 6.00 Build 0)  -->
<!DOCTYPE svg PUBLIC "-//W3C//DTD SVG 1.1//EN" "http://www.w3.org/Graphics/SVG/1.1/DTD/svg11.dtd">
<svg version="1.1" id="Calque_1" xmlns="http://www.w3.org/2000/svg" xmlns:xlink="http://www.w3.org/1999/xlink" x="0px" y="0px"
	 width="36px" height="29.3px" viewBox="0 0 36 29.3" enable-background="new 0 0 36 29.3" xml:space="preserve">
<g>
	<path fill="#3F4E71" d="M6.7,6.9C5,9,4.2,11.3,4.2,13.5c0,0.9,0.1,1.7,0.4,2.4c1.3-1,2.7-1.5,4.3-1.5c2.1,0,3.8,0.6,5.2,2
		c1.4,1.4,2.2,3.2,2.2,5.4c0,1.4-0.4,2.7-1,3.8s-1.6,2-2.7,2.7s-2.4,0.9-3.7,0.9c-2.9,0-5.2-1.2-6.8-3.7c-1.4-2.1-2-4.7-2-7.7
		C0,14,1,10.5,2.9,7.5c2-3.1,5-5.6,9-7.5L13,2.1C10.6,3.1,8.5,4.7,6.7,6.9z M26.5,6.9c-1.7,2.2-2.6,4.4-2.6,6.6
		c0,0.9,0.1,1.7,0.4,2.4c1.3-1,2.7-1.5,4.3-1.5c2.1,0,3.9,0.6,5.3,2c1.4,1.4,2.2,3.2,2.2,5.4c0,2.1-0.7,3.9-2.2,5.3
		s-3.2,2.2-5.2,2.2c-2.9,0-5.2-1.2-6.8-3.7c-1.3-2-2-4.6-2-7.6c0-3.9,1-7.3,2.9-10.4c1.9-3.2,4.9-5.7,8.8-7.6l1.1,2.1
		C30.3,3.1,28.2,4.7,26.5,6.9z"/>
</g>
</svg>

